<?xml version="1.0" encoding="UTF-8"?>
<svg id="Layer_1" xmlns="http://www.w3.org/2000/svg" version="1.1" viewBox="0 0 643.8 226.2">
  <!-- Generator: Adobe Illustrator 29.1.0, SVG Export Plug-In . SVG Version: 2.1.0 Build 142)  -->
  <path d="M468.8,143.9c-.1,0-.4,0-.5,0-5.5-.5-5.8-4.5-7.8-8.6-1.1-2.3-2.5-5.4-3.8-7.5s-1.1-1.3-2-1.6c-7.1-.4-14.3,0-21.4-.2-3.3,0-6.7-1.3-8.7,2-2,3.4-3.7,7.2-5.7,10.7s-3.3,4.6-7.4,4.2c-.7,0-3-.3-3.2-1s.7-1.9.9-2.4c8.2-16.8,17.2-33.2,25.5-50,1.8-2.9,5.2-10.5,9.4-5.9,1,1.1,1.7,2.6,2.5,3.9,8.6,18,17.5,35.8,25.8,53.9,0,.9-.2,1.1-1,1.5s-1.8.8-2.6.9ZM441.3,95.4c-.2,0-.2,0-.2.1-.3.5-.7,1.2-.9,1.8-2.6,5-5.3,10.2-7.7,15.4-.5,1-1.7,3.3-2,4.2s-.1.6.1.8h20.7c.2,0,.3-.3.3-.5l-10.3-21.7Z"/>
  <path d="M52.5,83.6c2-1.2,4.1-1.5,6.4-.9,1.3.3,1.9.8,2,2.2v24.5c.1.9.1,2,1.3,2.2,9.1.2,18.2.2,27.3,0,1.1-.2,1.2-1.3,1.3-2.3.5-7.4-1.9-17.9,3.3-23.8,1.3-1.5,4.7-4.5,5.1-.7-.1,19,.2,38-.1,57-.2.9-.7,1-1.5,1.2-1.6.5-3.8.5-5.4,0s-1.4-.9-1.5-2.1c-.4-6.1.5-12.7,0-18.8-.1-1.9-.7-2.1-2.5-2.2-6.9-.4-14.2.3-21.1,0-1.5.3-3,0-4.5.1s-1.5.4-1.6,1.4c-.6,6.1.3,12.8,0,18.9,0,.9-.2,2-1.1,2.5s-3.9.5-5,.4-1.8-.5-2.3-1.3v-58.2Z"/>
  <path fill="#c79e84" d="M563.9,122.7v2.6c-1.5,17.5-22.1,21.4-36.1,16.6s-1.8-.6-1.8-1.7,1-4.5,1.4-5.5.7-1.2,1.6-1,2.7,1,3.8,1.3c5.7,1.5,12.3,1.5,17.5-1.7,3.9-2.5,5.6-6.2,4.9-10.8s-7.1-7.7-12.6-7.9c-2,0-4.5.2-6.3,0-2.7-.4-1.9-5.2-.6-6.8,3.7-4.1,6.9-9.1,10.6-13.2,2.8-3.1,6.9-1.3,10.6-1.8,1.5.5,0,1.5-.5,2.1-2.8,3.2-5.4,6.4-8.2,9.5-.3.4-1.8,1.8-1.8,2.1,0,.9,1.5.8,2.1.8,8.4,1.3,14.9,6.4,15.5,15.4Z"/>
  <path d="M248.7,82.3c6.4,0,13.2-.2,19.6.4,12.4,1.1,19.2,14.5,14.6,25.6-2.1,5-5.4,7.1-9.9,9.6s-1.7,1-.9,2.5c2,3.5,6.8,9.9,9.9,12.5,1.1.9,1.9,1.4,2.9.2,8.4-15.7,16.4-31.7,25.1-47.2,4.9-7,7.8-1.7,10.5,3.2,9,16.6,17.1,33.7,26,50.4.7,1.7,1.2,3.1-1.2,3.3s-4.4.1-5.4-.2-1.6-1.1-2.1-2c-2.3-3.9-4-8.5-6.2-12.4s-1.5-2-2.8-2.3c-9.2-.3-18.4,0-27.6-.2-1.7.1-2.9.9-3.8,2.4-2.4,4-4.2,8.9-6.6,13-1.6,2.8-3.5,2.8-6.5,2.3-6.2-1.1-9.1-4.7-12.8-9.3-3.1-3.9-6-8-8.9-12.1-1.7-2.4-3.8-5.1-5.3-7.5-1.4-2.3.5-2,2.1-2.1s4.4,0,6.5-.3c14.3-2.2,13-21.2-1.3-21.7h-34.2c-2.5-.2-2.5-1.1-1.4-3,1.7-2.9,4.9-4.7,8.3-4.9,3.6-.2,7.7-.1,11.4-.2ZM314.3,94.8l-11.2,21.9c0,.4.3.7.7.6,6.8-.2,13.6.2,20.3,0,.4,0,1.1,0,1.3-.3.3-.5-.4-1.2-.5-1.7l-10.7-20.6Z"/>
  <path d="M334.2,82.4c2.7-.2,5.8-.4,7.4,2.2,2.6,5.6,5.2,11.3,7.7,17,3,6.7,5.8,13.9,9,20.5.2.4.6,1.4.9,1.6,1.1,1.2,1.6-1.4,1.9-2.1,4.8-11.7,9.8-23.5,14.6-35.2.3-.7,1.2-.9,1.8-.3,5.1,12,10.2,24,15.2,36,.2.5.5,1.9,1,2,1.1.5,1.4-1.1,1.7-1.8,5.6-12.6,11-25.2,16.7-37.7,1.5-2.5,4.6-2.4,7.2-2.3s2.8.3,2,2.1c-7.6,17-14.9,34.3-22.7,51.2-.8,1.7-1.6,3.6-2.6,5.3s-.8,1.5-.9,1.5c-.3.2-.7-.2-.9-.4-2.2-2-5-7.5-6.3-10.3-3.2-6.7-6-14-8.8-20.8-.6-1.3-1-2.9-1.6-4.1s-.2-.5-.5-.7c-.3,0-1.5,2.9-1.7,3.4-3.7,8.6-6.9,17.3-10.8,25.8-.9,2-1.9,4.3-3,6.2-.4.8-1,1.9-2,1.2s-3.3-5.1-4.1-6.8c-8-16.6-14.8-33.8-22.6-50.6-.9-2-.6-2.7,1.6-2.9Z"/>
  <path d="M185.9,82.2c5.6,0,11.5,0,17,.6,10.2,1.2,17.4,6.9,22,15.9,10.2,19.8-4.9,44.3-27.2,44-7-.1-14.1.2-21.1-.2-.9-.2-1.4-.8-1.6-1.7-.2-14.4-.2-28.9,0-43.4.3-1.2.9-1.6,2-1.8s3.1-.2,4.4,0,1.7.5,1.9,1.7c.2,11.6.2,23.3.2,35,0,2.8,3.4,2,5.3,2,3.4.1,6.7.3,10.1,0,9.2-.9,16.6-6.5,19.2-15.5,4.3-14.6-5.3-27.8-20.4-28.5-9.3-.4-18.9.3-28.3,0-2.9,0-3.2-3.9-2.5-6,.3-1.1.8-1.8,2-1.9,3-.3,6.7,0,9.8,0s4.7-.2,7.1-.2Z"/>
  <path d="M518.3,81.6c1.1,0,2.4.1,2.6,1.4-9.6,18.6-19.1,37.3-28.7,55.9-.6,1.1-1.1,2.5-1.7,3.5s-1.1.7-1.6-.1c-2.5-4.2-4.8-8.8-7.1-13.1-7-13.4-14.2-27.6-20.3-41.4-.4-1-1.9-4-2-4.9s.3-.6.7-.7c6.2-.9,9.6,5.1,12,9.7,5.6,10.9,10.6,22.1,16.1,33,.4,1,1.6,1.2,2.1.2,5.8-11.3,11.4-22.8,17.3-34.1,2.4-4.6,4.5-8.9,10.5-9.4Z"/>
  <path d="M158.2,82.3c1,0,2.5.1,3.4.4,2.4.8.4,3.1-.5,4.5-7.2,11.5-14.9,22.6-22,34.1-1.4,2.7-1.8,5.1-1.7,8.1,0,3,.1,5.9,0,8.9s.3,3.6-.9,4.3-4.1.5-5.3.3-1.7-.9-1.8-2.2c-.5-6,1-13.7-1.5-19.2-7.4-12.1-15.3-23.8-23-35.8-1.1-1.7-1.3-3.1,1.1-3.3,4.4-.4,6.5.2,8.9,3.8,6.1,9,11.5,18.5,17.8,27.3,1.1,1,1.8-.2,2.3-1,5.6-8.3,10.7-17.1,16.1-25.5s3.5-4.6,6.9-4.7Z"/>
  <path d="M240,95.6c1.1,0,2.8,0,3.4.9s.6,2.5.7,3.5c.3,6.6,0,13.5-.1,20.1,0,6.4,0,12.7,0,19.1,0,.9.2,1.5-.2,2.5-.7,1.8-3.7,1.6-5.2,1.5-2-.1-2.7-.9-2.8-2.8v-41.5c.1-1.3.2-2.5,1.6-2.9s1.9-.3,2.6-.3Z"/>
  <path fill="#c79e84" d="M527.2,81.3h33c1.2,0,1.2,1,1.3,2s-.1,1.4-.1,2c0,1.6.7,3.4-1.5,3.6h-32.6c-.8-.1-1.3-.6-1.4-1.4s-.1-4.4,0-5.1.7-1.1,1.4-1.2Z"/>
  <path fill="#c79e84" d="M515.4,76.4c6.5-6.2,14.7-10.3,23.6-11.6,9.3-1.4,18.7.2,27.1,4.1,2.3,1,3.7,1.9,5.8,3.2,2,1.3,3.8,2.6,5.6,4.1,3.6,3,6.8,6.4,9.6,10.2,5.3,7.3,8.5,15.9,8.9,25,.1,2.2,0,4.3-.2,6.5-.2,1.9-.6,4.4-1,6.2-1,4.4-2.6,8.4-4.9,12.2-4.8,8.3-12,14.9-20.5,19.3-4.3,2.3-8.7,4-13.4,5.1-.6.1-1.1.3-1.7.4-.3,0-1.3.2-1.6.2-1.1.1-2.2.2-3.3.3-2.2.1-4.5.1-6.7,0-8.9-.5-17.6-3.3-24.9-8.6-4-2.8-7.4-6.3-10.2-10.3-.7-1-1.3-1.9-1.9-3-.1-.2-.3-.5-.4-.8,0,0,0,0,0,0,0,0,0,0,0,0,0,0,0,0,0,0,0,0,0,.1.1.2,0,.1.2.2.2.3.3.4.7.8,1,1.2,1.4,1.6,2.9,3.1,4.6,4.5,6.9,5.8,15.4,9.3,24.4,10,18.8,1.5,36.3-9.4,43.3-26.8,7-17.5,1.9-37.4-12.7-49.4-14.6-11.9-35.2-13-50.9-2.7Z"/>
</svg>
